<?xml version="1.0" standalone="no"?>
<!DOCTYPE svg PUBLIC "-//W3C//DTD SVG 20010904//EN"
 "http://www.w3.org/TR/2001/REC-SVG-20010904/DTD/svg10.dtd">
<svg version="1.0" xmlns="http://www.w3.org/2000/svg"
 width="16.000000pt" height="16.000000pt" viewBox="0 0 16.000000 16.000000"
 preserveAspectRatio="xMidYMid meet">
<metadata>
Created by potrace 1.11, written by Peter Selinger 2001-2013
</metadata>
<g transform="translate(0.000000,16.000000) scale(0.002857,-0.002857)"
fill="#000000" stroke="none">
<path d="M2791 4914 c-79 -16 -141 -40 -206 -77 -169 -96 -258 -121 -399 -113
-56 3 -120 10 -144 15 -67 13 -279 10 -357 -5 -154 -31 -311 -154 -451 -354
-66 -94 -115 -140 -191 -178 -87 -44 -126 -54 -211 -54 -83 0 -117 9 -172 47
-52 36 -139 36 -211 2 -60 -29 -137 -92 -126 -103 4 -4 17 1 29 12 l22 19 -18
-29 c-16 -24 -16 -28 -3 -23 11 4 14 2 10 -9 -7 -19 0 -18 27 6 13 11 26 17
29 14 3 -4 0 -9 -6 -11 -24 -9 -13 -20 17 -18 17 1 54 14 83 28 64 33 110 36
202 14 85 -20 204 -17 259 7 52 22 127 21 173 -4 20 -10 40 -17 44 -14 14 8
22 -44 15 -96 -4 -26 -15 -74 -26 -106 -25 -73 -25 -113 1 -174 17 -39 19 -58
13 -87 -4 -21 -7 -51 -5 -66 1 -15 -3 -43 -9 -61 -11 -34 -18 -42 -156 -163
-93 -82 -198 -208 -226 -270 -23 -53 -13 -83 50 -141 59 -55 102 -74 166 -73
63 0 86 23 86 85 0 66 26 126 82 189 53 61 91 86 136 92 15 2 47 6 72 9 248
33 261 36 289 57 13 11 29 19 35 19 36 0 104 -127 111 -207 1 -21 6 -54 10
-74 4 -23 1 -55 -9 -88 -8 -28 -13 -58 -10 -66 8 -21 65 -30 185 -29 163 1
195 32 119 119 -69 80 -82 186 -37 315 14 41 28 91 32 111 8 52 33 70 107 76
41 4 95 19 153 44 89 38 205 61 205 42 0 -5 -11 -46 -25 -92 -13 -45 -27 -101
-30 -124 -9 -63 -30 -129 -54 -167 -16 -27 -21 -52 -21 -110 0 -67 -4 -80 -30
-119 -38 -56 -39 -85 -2 -100 69 -29 252 -35 297 -11 32 17 32 50 0 80 -43 40
-33 99 27 168 15 18 53 83 84 144 30 60 64 120 75 132 11 11 23 34 26 49 12
61 75 54 147 -15 28 -27 90 -69 137 -94 130 -68 195 -140 203 -228 6 -69 22
-79 117 -73 54 3 90 12 126 30 46 24 103 77 103 97 0 5 2 15 5 22 6 14 -25 58
-40 58 -26 0 -80 60 -111 123 -44 87 -57 103 -108 129 -60 31 -193 165 -222
225 -31 63 -42 165 -22 203 19 36 73 47 153 31 57 -12 68 -11 90 3 31 21 37
47 27 114 -12 70 0 89 43 66 22 -12 60 -17 140 -19 109 -2 110 -2 144 -33 18
-18 44 -32 57 -32 27 0 27 0 15 34 -7 17 -6 27 3 35 19 16 65 -11 186 -110
229 -185 393 -263 575 -273 91 -5 182 27 225 79 14 17 13 18 -20 11 -115 -25
-171 -26 -256 -5 -129 34 -197 76 -357 222 -84 77 -102 103 -87 128 5 7 4 23
-1 36 -15 39 16 51 181 69 94 10 181 33 244 65 59 30 172 106 206 138 125 119
163 153 208 188 57 45 112 60 156 44 64 -25 99 -3 60 37 -15 15 -15 17 5 30
11 8 21 21 21 29 0 21 -68 45 -125 45 -73 0 -142 -35 -284 -146 -68 -54 -145
-108 -170 -121 -150 -75 -319 -92 -524 -50 -123 25 -267 129 -408 293 -57 68
-114 107 -167 117 -69 12 -167 8 -206 -9 -84 -35 -155 -37 -282 -6 -110 27
-102 25 -144 34 -68 13 -116 13 -179 0z m-2331 -833 c0 -5 -7 -12 -16 -15 -14
-5 -15 -4 -4 9 14 17 20 19 20 6z"/>
<path d="M1051 2208 c-71 -182 -533 -1386 -534 -1392 -2 -10 328 -16 342 -6 4
3 29 68 56 145 26 77 51 147 55 155 13 22 437 23 446 0 3 -8 26 -73 50 -144
25 -71 49 -136 54 -145 7 -14 31 -17 174 -16 90 0 168 3 171 7 3 3 -29 95 -71
204 -42 110 -87 226 -99 259 -33 89 -330 863 -350 913 l-17 42 -134 0 c-130 0
-135 -1 -143 -22z m204 -533 c26 -82 57 -184 71 -225 13 -41 24 -80 24 -87 0
-8 -45 -11 -160 -11 -171 0 -171 0 -150 50 5 13 41 124 81 248 58 181 73 220
80 200 4 -14 28 -92 54 -175z"/>
<path d="M1740 2222 c0 -7 141 -365 160 -407 5 -11 93 -231 195 -490 103 -258
192 -481 198 -495 12 -25 13 -25 149 -25 l138 0 26 65 c14 36 31 79 38 95 21
49 35 83 88 215 27 69 55 135 61 148 l11 23 12 -23 c6 -13 52 -124 102 -248
50 -124 95 -236 102 -250 11 -25 11 -25 145 -25 76 0 138 5 143 10 5 6 64 149
132 320 67 171 128 324 135 340 30 69 295 741 295 748 0 4 -80 7 -177 7 l-178
0 -61 -178 c-212 -616 -284 -828 -284 -839 0 -7 -4 -13 -8 -13 -9 0 -143 346
-142 367 0 10 72 214 201 569 16 44 29 84 29 87 0 4 -68 6 -152 5 l-151 -3
-54 -165 c-30 -91 -55 -169 -57 -175 -20 -72 -28 -96 -34 -90 -3 3 -36 101
-72 218 l-67 212 -155 3 -155 2 119 -331 119 -332 -32 -86 c-17 -47 -47 -129
-66 -181 -18 -51 -36 -96 -38 -98 -6 -6 -7 -3 -105 283 -45 132 -85 249 -90
260 -5 11 -32 90 -60 175 -28 85 -55 162 -59 170 -4 8 -16 43 -26 78 l-20 62
-177 0 c-98 0 -178 -3 -178 -8z"/>
<path d="M4122 1518 l3 -713 163 0 162 -1 0 282 0 281 248 1 c136 0 254 1 262
1 13 1 15 20 14 124 -1 67 -2 127 -3 132 -1 7 -93 10 -258 10 l-258 0 -3 152
-3 153 318 2 318 3 1 143 2 142 -484 0 -484 0 2 -712z"/>
</g>
</svg>
