<svg xmlns="http://www.w3.org/2000/svg" width="1370" height="680"><path d="M55.471 473.25l-11.849 36.78h23.265l-11.416-36.78zM8.243 547.915l38.044-98.911h18.51l37.898 98.911h-24.23l-7.675-22.156H40.005l-7.52 22.156H8.243zm110.473 0v-98.911h67.139v20.072h-44.294v21.309h36.491v18.519h-36.491v39.011h-22.845zm108.517-51.813h20.907c2.674 0 5.002-1.288 6.971-3.838 1.941-2.562 2.922-5.82 2.922-9.824 0-4.097-1.124-7.335-3.363-9.737-2.221-2.437-4.627-3.635-7.224-3.635h-20.212v27.034h-.001zm-22.848 51.813v-98.911h44.586c4.642 0 8.942.978 12.875 2.929 3.962 1.962 7.374 4.499 10.259 7.662 2.875 3.154 5.12 6.732 6.75 10.728 1.622 3.995 2.427 8.021 2.427 12.117 0 3.065-.361 6.011-1.112 8.84a33.74 33.74 0 01-3.199 8.021 30.481 30.481 0 01-5.086 6.759 29.84 29.84 0 01-6.762 5.078l22.716 36.778h-25.785l-19.914-31.903h-14.908v31.903h-22.847v-.001zm101.701-98.911h22.851v98.911h-22.851v-98.911zm37.464 48.608c0-5.934 1.076-11.843 3.214-17.749 2.132-5.892 5.251-11.172 9.33-15.82 4.087-4.634 9.076-8.411 14.977-11.271 5.909-2.88 12.615-4.316 20.134-4.316 8.822 0 16.473 2 22.982 5.983 6.505 3.989 11.33 9.195 14.487 15.605l-17.552 12.249c-1.014-2.589-2.329-4.754-3.895-6.468-1.583-1.715-3.288-3.113-5.152-4.177a20.172 20.172 0 00-5.784-2.242c-2.006-.409-3.885-.611-5.65-.611-4.093 0-7.611.873-10.584 2.636-2.969 1.765-5.429 4.043-7.361 6.837-1.971 2.775-3.426 5.938-4.403 9.475a39.837 39.837 0 00-1.461 10.713c0 3.905.563 7.665 1.729 11.288 1.157 3.629 2.791 6.828 4.883 9.612 2.087 2.782 4.622 4.998 7.588 6.607 2.97 1.634 6.276 2.454 9.89 2.454 1.851 0 3.78-.271 5.787-.775a23.057 23.057 0 005.778-2.361c1.861-1.073 3.518-2.45 5.024-4.184 1.482-1.714 2.687-3.834 3.611-6.342l18.81 11.003c-1.49 3.632-3.646 6.878-6.463 9.762a41.552 41.552 0 01-9.696 7.25 50.214 50.214 0 01-11.494 4.455c-4.045 1.005-8.008 1.53-11.917 1.53-6.867 0-13.155-1.456-18.876-4.398-5.712-2.919-10.621-6.786-14.759-11.622-4.135-4.831-7.361-10.313-9.678-16.438-2.333-6.129-3.499-12.349-3.499-18.685m140.992-24.362l-11.833 36.78h23.268l-11.435-36.78zm-47.225 74.665l38.033-98.911h18.524l37.893 98.911h-24.226l-7.674-22.156H469.08l-7.52 22.156h-24.243zm130.519-56.559v56.559h-22.833v-98.911h17.832l46.104 58.094v-58.094h22.86v98.911h-18.396l-45.567-56.559zm154.65-42.194h21.163l9.906 31.602 10.173-31.602h21.026l-16.584 45.954 10.027 26.614 24.939-72.726h24.8l-39.431 98.911h-19.214l-15.605-38.726-15.743 38.726h-19.088l-39.416-98.911h24.648l25.078 72.726 9.759-26.614-16.438-45.954zm118.408-.158h22.85v98.911h-22.85v-98.911zm48.752 98.911v-98.911h22.847v78.85h47.926v20.061h-70.773zm146.413-49.593c0-4.38-.578-8.343-1.738-11.918-1.169-3.574-2.854-6.664-5.087-9.255-2.224-2.605-4.949-4.594-8.211-5.983-3.263-1.407-6.93-2.09-11.017-2.09h-14.058v58.778h14.058c4.18 0 7.9-.73 11.148-2.219 3.252-1.493 5.975-3.565 8.142-6.213 2.18-2.647 3.855-5.758 5.024-9.326 1.16-3.575 1.739-7.495 1.739-11.774m-62.956 49.593v-98.911h36.903c8.169 0 15.331 1.312 21.461 3.896 6.131 2.609 11.261 6.131 15.388 10.595 4.13 4.466 7.243 9.683 9.339 15.674 2.077 5.99 3.127 12.385 3.127 19.153 0 7.52-1.162 14.335-3.479 20.414-2.316 6.089-5.638 11.265-9.965 15.594-4.302 4.317-9.525 7.672-15.587 10.027-6.095 2.38-12.854 3.558-20.283 3.558h-36.904zm101.274 0v-98.911h22.846v78.85h47.924v20.061h-70.77zm89.024-98.911h22.839v98.911h-22.839v-98.911zm45.954 98.911v-98.911h67.156v20.072h-44.314v21.309h36.513v18.519h-36.513v39.011h-22.842zm152.399-20.061v20.061h-69.501v-98.911h68.254v20.072h-45.403v19.223h38.996v18.535h-38.996v21.02h46.65zM293.149 662.856v-81.637h53.126v5.292h-47.267v32.449h40.15v5.039h-40.15v38.857h-5.859zm71.988-40.814c0 4.685.787 9.184 2.358 13.507 1.565 4.341 3.799 8.179 6.676 11.502a32.265 32.265 0 0010.227 7.997c3.936 2.004 8.301 2.997 13.051 2.997 4.904 0 9.326-1.041 13.286-3.095 3.944-2.085 7.343-4.822 10.182-8.25 2.838-3.399 5.019-7.245 6.557-11.548a38.74 38.74 0 002.287-13.11c0-4.675-.805-9.177-2.391-13.503-1.619-4.339-3.867-8.17-6.747-11.509a33.058 33.058 0 00-10.227-7.982c-3.95-1.994-8.273-3.005-12.945-3.005-4.908 0-9.356 1.052-13.346 3.109-3.989 2.069-7.373 4.815-10.158 8.224-2.812 3.42-4.964 7.271-6.506 11.562s-2.304 8.665-2.304 13.104m32.311 41.402c-5.677 0-10.841-1.195-15.525-3.557-4.669-2.386-8.704-5.492-12.072-9.317-3.378-3.855-5.975-8.235-7.815-13.238-1.836-4.979-2.761-10.072-2.761-15.29 0-5.438.963-10.645 2.931-15.638 1.95-4.979 4.646-9.383 8.047-13.232 3.411-3.832 7.457-6.872 12.141-9.121 4.672-2.277 9.729-3.404 15.176-3.404 5.665 0 10.847 1.201 15.531 3.625a39.443 39.443 0 0112.016 9.485c3.318 3.905 5.918 8.345 7.752 13.276 1.842 4.958 2.761 9.961 2.761 15.009 0 5.528-.981 10.773-2.934 15.767-1.959 4.964-4.646 9.371-8.044 13.157-3.42 3.808-7.442 6.826-12.078 9.086-4.646 2.257-9.67 3.392-15.126 3.392m92.927-5.399c5.513 0 10.095-1.047 13.733-3.095 3.641-2.085 6.542-4.804 8.686-8.188 2.141-3.366 3.649-7.195 4.541-11.488a64.476 64.476 0 001.318-12.997v-41.059h5.871v41.059c0 5.456-.593 10.65-1.783 15.627-1.193 5-3.128 9.389-5.808 13.176-2.684 3.804-6.187 6.792-10.528 9.034-4.317 2.224-9.634 3.315-15.924 3.315-6.422 0-11.846-1.157-16.208-3.501-4.38-2.338-7.874-5.426-10.525-9.302-2.642-3.868-4.526-8.266-5.65-13.17-1.097-4.907-1.643-9.964-1.643-15.18v-41.059h5.853v41.059c0 4.532.442 8.931 1.324 13.221.883 4.294 2.391 8.106 4.535 11.443 2.159 3.324 5.033 6.017 8.632 8.048 3.599 2.029 8.128 3.057 13.576 3.057m66-65.794v70.605h-5.859v-81.637h4.481l57.264 71.88v-71.764h5.871v81.521h-5.4l-56.357-70.605zm149.141 29.687c0-5.146-.715-9.877-2.165-14.21-1.473-4.323-3.602-8.08-6.38-11.214-2.8-3.133-6.241-5.587-10.302-7.361-4.063-1.759-8.736-2.642-14.037-2.642h-21.256v71.065h21.256c5.378 0 10.104-.903 14.201-2.704 4.105-1.795 7.537-4.302 10.304-7.546 2.755-3.223 4.845-6.972 6.255-11.307 1.441-4.328 2.124-9.034 2.124-14.081M645.5 662.856v-81.638h27.133c6.449 0 12.102 1.076 16.971 3.226 4.86 2.135 8.9 5.063 12.117 8.728 3.226 3.686 5.65 8.012 7.251 12.946 1.613 4.946 2.43 10.221 2.43 15.819 0 6.205-.918 11.822-2.713 16.831-1.807 5.036-4.404 9.312-7.743 12.896-3.391 3.561-7.475 6.318-12.264 8.265-4.803 1.965-10.137 2.928-16.049 2.928H645.5v-.001zm113.839-74.502l-18.164 42.775h35.988l-17.824-42.775zm-37.145 74.502l34.741-81.638h4.834l34.717 81.638h-6.317l-11.39-26.896h-38.981l-11.401 26.896h-6.203zm141.694-76.345h-29.905v76.345h-5.875v-76.345h-29.892v-5.292h65.672v5.292zm18.951-5.176h5.89v81.521h-5.89v-81.521zm33.825 40.707c0 4.685.787 9.184 2.355 13.507 1.571 4.341 3.781 8.179 6.661 11.502a32.582 32.582 0 0010.257 7.997c3.936 2.004 8.292 2.997 13.021 2.997 4.922 0 9.355-1.041 13.301-3.095 3.944-2.085 7.343-4.822 10.185-8.25 2.824-3.399 5.018-7.245 6.56-11.548 1.523-4.278 2.284-8.652 2.284-13.11 0-4.675-.814-9.177-2.422-13.503-1.604-4.339-3.854-8.17-6.705-11.509a33.279 33.279 0 00-10.253-7.982c-3.937-1.994-8.259-3.005-12.949-3.005-4.882 0-9.338 1.052-13.331 3.109-3.975 2.069-7.37 4.815-10.17 8.224-2.797 3.42-4.964 7.271-6.506 11.562-1.531 4.291-2.288 8.665-2.288 13.104m32.294 41.402c-5.659 0-10.82-1.195-15.511-3.557-4.681-2.386-8.697-5.492-12.068-9.317-3.394-3.855-5.973-8.235-7.818-13.238-1.849-4.979-2.773-10.072-2.773-15.29 0-5.438.994-10.645 2.943-15.638 1.956-4.979 4.637-9.383 8.047-13.232a38.113 38.113 0 0112.145-9.121c4.669-2.277 9.727-3.404 15.174-3.404 5.679 0 10.846 1.201 15.53 3.625 4.672 2.406 8.664 5.576 12.004 9.485 3.333 3.905 5.915 8.345 7.755 13.276 1.84 4.958 2.77 9.961 2.77 15.009 0 5.528-.966 10.773-2.937 15.767-1.953 4.964-4.64 9.371-8.036 13.157-3.422 3.808-7.447 6.826-12.081 9.086-4.646 2.257-9.688 3.392-15.144 3.392m66.135-71.193v70.605h-5.854v-81.637h4.485l57.266 71.88v-71.764h5.859v81.521h-5.423l-56.333-70.605z"/><g fill="#FFCEA9"><path d="M594.497 381.829a16.433 16.433 0 01-.865 4.27c3.921 2.18 8.754 3.449 16.461 3.688 14.765.451 15.731-4.895 15.865-17.865.116-12.942 6.494-22.806 8.736-25.811 7.699-8.426 12.066-15.612 22.007-20.331a21.931 21.931 0 011.667-.593c-.024-.033-.048-.054-.072-.078-5.143-5.647-10.125-13.581-16.467-18.289-6.589-3.605-8.217-7.12-9.94-17.803-.569-.695-1.574-.835-2.844-.656-9.762 8.87-24.625 21.151-33.379 31.482-11.729 13.93-13.026 15.498-19.353 24.815-.242.349-.462.695-.689 1.043.215 5.072 1.148 10.791 4.249 17.786 8.243 5.256 15.188 9.559 14.624 18.342zm271.019-8.11c1.312-1.368 5.208-5.148 6.012-7.957.802-2.821 1.094-4.994.648-8.676-.25-2.194-.381-4.646-.971-6.396-.585-1.625-1.805-3.098-4.323-4.097-.967-.387-1.972-.814-3.25-1.085-.373 6.458.909 13.179-.096 21.091-.591 4.911-6.747 8.591-10.144 17.049-.104.26-.203.531-.295.817 1.407-1.204 3.038-2.553 4.681-4.01 3.256-2.862 7.118-6.11 7.738-6.736zm37.711 11.76c-.964-2.242-1.834-3.506-3.963-6.303-2.427-3.221-8.667-4.663-14.631-.519-5.944 4.105-4.701 2.186-6.854 3.362-2.128 1.172-2.325 2.773-4.608 3.825-2.312 1.057-3.438.942-3.77 3.015-.265 1.629-.202 4.744-1.118 6.933 5.51.978 12.869 1.678 22.708 1.917 4.612.099 9.261-.254 13.185-1.005.369-1.622 1.446-3.602 1.262-4.922-.3-2.096-1.099-3.644-2.211-6.303z"/><path d="M1362.48 47.446c.553-3.262-10.665-11.324-27.943-8.531-27.081 4.368-46.181 32.86-72.965 47.07-26.789 14.21-48.966 14.24-61.562 14.07-19.706-.295-38.684-5.114-51.248-11.127-15.677-7.505-37.991-25.343-57.682-52.437-8.626-7.338-13.077-13.906-30.322-15.159-17.146-1.246-18.084-2.77-35.752 4.222-26.435 10.468-51.683-6.335-82.127-8.864-17.422-1.431-45.153 8.718-57.727 16.929-12.579 8.206-36.7 19.466-53.688 19.985-16.921.563-30.878-2.558-44.012-4.21-13.11-1.64-43.504-3.351-67.202 3.718-20.394 5.42-42.445 26.109-56.924 43.274.209.62.421 1.237.629 1.857a88.524 88.524 0 0011.029-3.915c9.946-4.344 14.028-9.932 28.701-9.932 12.559 0 27.788 9.72 40.573 13.248 12.779 3.521 39.47 2.671 51.257 4.09 11.818 1.437 21.252 8.268 26.044 12.585 7.245 6.479 7.013 12.424 17.48 15.802 17.242 5.578 24.529 31.396 46.771 47.974 38.74 28.855 63.663 28.399 84.883 46.596 20.463 17.585 39.028 48.316 42.457 69.021.087.942.785 2.695.319 3.238-2.517 2.827-5.662-6.049-8.941-4.028-3.151 1.911-10.438 5.51-9.49.06 3.354-17.347-13.148-30.925-22.666-39.855-19.326-18.089-39.002-21.264-51.468-24.201-12.726-2.987-25.042-5.841-39.327-6.634-4.875 2.267 4.994 11.703 11.074 17.717 5.521 4.83 17.79 17.12 39.094 26.646 9.309 4.183 28.895 8.366 28.068 11.059-6.165.916-16.267.083-26.175-2.502-19.479-5.068-63.406-27.484-77.933-48.28-3.336-4.779-8.22-9.028-10.975-6.69-2.782 2.337.76 5.179-1.497 8.098-1.616 1.84-10.809-3.232-17.275-10.209-1.881-2.811-3.352-5.79-10.113-3.22-1.971.996-4.49-2.436-8.822-4.04-2.595-.958-4.657.492-9.83-.564-16.459-3.393-10.955 15.952-9.834 24.568.055.408.093.859.113 1.318 11.899 4.425 23.808 9.076 32.721 14.24 13.79 8.012 19.102 15.633 20.328 18.519 1.226 2.889-2.374 5.206-5.653 2.51-3.298-2.692-7.564-4.818-7.248-1.762.119 1.267 2.722 9.88-1.098 6.225-9.445-8.986-28.023-17.26-42.642-21.029-.668-.176-1.387-.352-2.097-.534-3.214 3.402-7.919 4.851-14.466 1.744-14.95-7.102-2.881 6.676-7.746 13.995-8.552 12.589-.845 33.603 2.238 40.395.653 2.886 10.623 17.71 14.696 28.116 4.063 10.396.369 21.623 4.684 31.247 4.303 9.583 12.576 12.887 10.614 20.99-.128.501-.247.933-.366 1.339 11.169-.624 20.498-2.928 20.671-8.543.212-6.142-1.798-8.718-7.221-13.59-5.4-4.862-7.479-9.344-9.508-19.025-2.025-9.693-2.47-18.652.315-27.311 2.817-8.712 7.931-21.754 8.047-26.474.138-4.717 1.137-10.048 5.877-13.915 3.211-2.454 6.703-3.885 19.529-3.611 12.838.274 26.393-15.978 53.841-16.583 8.051 0 1.05 10.892-2.256 23.578-3.308 12.711-3.812 23.781-8.084 37.949-2.355 6.682-5.524 9.866-7.402 13.844.249-.078.497-.128.75-.224 2.398-.847 3.924-1.292 5.675-2.63 1.3-1.014 2.504-2.633 3.705-5.218 4.127-8.828 12.904-13 20.165-15.394 13.185-3.965 24.13 6.676 30.65 3.67 2.263-1.049 5.135-2.937 8.271-4.684.077-.218.167-.438.229-.626 4.845-11.685 11.938-14.894 12.984-20.281-.257-5.838 3.282-8.551 5.444-9.207 19.776-.385 20.402 17.689 40.508 25.102 6.022 2.06 22.126 11.342 25.501 15.748 2.932 3.772 13.617 14.103 14.124 22.314.813 13.372-1.396 18.667 15.001 18.84 14.225.171 22.367-3.258 26.106-4.967 3.706-1.69 7.436-3.429 15.134-10.683 4.392-4.163 7.579-11.498 5.334-15.403-3.604-6.261-9.073-5.924-17.245-13.014-8.209-7.084-12.913-31.396-23.274-36.113-14.801-6.76-22.851-16.867-34.39-29.109-11.535-12.249-11.151-16.736-13.345-23.292-2.18-6.574-3.68-23.766.616-29.518 5.627-7.43 22.383-5.227 31.683-2.474 9.3 2.713 18.799-3.507 15.993-17.541-4.189-20.984-1.374-21.357 10.921-14.794 9.616 5.131 38.647-1.825 42.863 4.049 3.396 4.723 8.793 9.964 15.513 9.759 4.771-.146-4.925-10.254.52-13.015 4.371-2.188 10.021.895 16.217 5.763 6.741 5.296 17.233 15.23 32.442 26.709 15.191 11.464 42.782 29.484 65.83 34.142 23.838 4.824 32.988 2.913 43.427-.76 10.411-3.685 18.891-12.776 17.114-13.62-1.768-.832-7.416 2.731-15.742 3.712-8.856 1.041-16.447 3.563-36.337-1.98-25.684-7.147-39.175-19.157-70.258-48.823-11.727-11.213-4.582-13.253-4.904-17.559-.209-3.435-2.395-5.829-2.031-7.132 1.87-5.036 14.467-6.508 35.024-8.712 26.095-2.779 38.225-7.907 60.538-23.19 20.522-14.061 33.63-31.146 53.068-46.704 11.778-12.317 22.69-10.349 33.305-6.321 8.176 3.125 10.734-3.587 5.981-6.685-8.391-5.45 3.487-7.621 4.124-11.196z"/></g><path d="M494.683 289.171c-3.053-2.167-5.263-.9-5.865 2.83-.799 4.899 8.188 15.999 11.446 27.359 1.777-1.398 2.922-2.535 4.845-4.133 3.059-2.528 5.665-2.567 7.671-1.365-8.368-12.344-15.834-23.063-18.097-24.691zm-52.664 65.121c2.314-1.819 4.798-3.966 7.174-6.19.254-.259.516-.504.784-.749 6.268-5.999 11.5-12.436 10.185-14.878-8.822-8.909-15.197-19.106-21.127-27.669-1.699 1.917-3.641 3.909-5.954 6.432-7.048 7.689-14.714 15.576-14.714 15.576s-10.987 10.561-14.061 13.769c-3.268 3.405-7.326 8.906-10.182 13.59-3.289 5.403-5.266 12.479-.075 17.956 3.652 3.896 21.563 16.836 35.203 17.122 7.084 0 14.219-1.573 13.2-8.617-.596-2.781-1.112-5.957-1.058-9.687-7.741-4.428-4.541-12.792.625-16.655zm99.701 38.479c-9.183-3.661-11.339-17.424-1.202-24.64-4.368-6.36-3.19-16.894-7.311-24.163-4.667-6.7-10.594-15.543-16.411-24.168.274.983.441 1.977.469 2.907.169 6.267 1.174 18.5 1.428 27.118.354 12.981-4.064 22.57-4.494 31.646-.417 9.075.036 10.942 9.252 14.079 7.102 2.444 35.692 2.781 43.882-.773-9.023.338-19.456.448-25.613-2.006zm138.905-182.323c-4.905-5.078-9.129-5.265-5.024 2.094 5.191 9.293 5.695 9.94 13.304 22.063 7.991 12.758 21.125 22.526 30.856 28.14 5.581 3.211 23.691 9.526 18.998 10.752-9.705 2.52-31.408-5.829-46.518-17.479-13.853-10.62-28.862-28.28-44.309-47.07-12.755-15.492-15.764-19.162-23.143-27.71-5.996-6.965-9.252-4.893-9.091-.474.045 1.389.432 3.452.757 5.003 1.011 4.872.975 10.626-9.267-1.151-2.436-2.785-2.761-3.405-8.527-8.193-5.262-4.317-11.536 4.264-22.809-3.736-4.312-3.259-3.664 5.099-6.064 11.908-2.385 6.819-1.861 8.018-3.506 20.129-1.685 12.156-16.104 2.373-18.465 11.21-3.008 16.31 1.36 14.317 5.128 28.197 2.146 5.731 7.087 41.244 11.062 54.226.847 2.415 2.126 5.394 3.524 8.59 1.485-4.783 2.186-9.085 11-10.403 9.896.76 18.602-2.215 33.131-2.913 6.878-.235 17.708-7.689 20.227-4.615 1.723 10.683 3.351 14.198 9.94 17.803 6.342 4.708 11.324 12.642 16.467 18.289 4.439 4.907 9.314 7.072 11.881 16.557 4.461 10.775-6.705 12.016-13.36 13.479-6.646 1.47-4.535 19.037 2.267 28.226 3.724 6.646 10.173 15.418 23.399 14.24 8.083-.789 10.08-7.191 12.042-16.705 9.177-9.365 13.387-9.727 14.354-18.85 1.482-9.538-3.131-28.624-5.367-37.988-2.245-9.348 6.505-4.988 6.505-4.988 4.78 2.045 9.034 6.351 9.034 6.351s12.958 14.317 19.943 26.947c6.562 11.864 14.738 20.919 8.957 27.15-4.177 4.544-4.055 15.075 0 16.375 7.32 1.726 35.016 1.947 39.288.498 3.221-1.101 3.709-2.159 4.564-5.549 1.962-8.104-6.312-11.407-10.614-20.99-4.314-9.625-.62-20.851-4.684-31.247-4.073-10.406-14.043-25.23-14.696-28.116-3.083-6.792-10.79-27.806-2.238-40.395 4.865-7.319-7.204-21.097 7.746-13.995 6.547 3.107 11.252 1.658 14.466-1.744-15.733-3.918-41.897-8.566-60.732-17.69-19.707-9.523-32.587-16.386-40.426-26.226zm35.219-26.816c6.721 13.486 17.319 27.409 33.826 36.965 9.04 5.212 23.414 10.245 37.803 15.597a15.66 15.66 0 00-.113-1.318c-1.121-8.617-6.625-27.961 9.834-24.568 5.173 1.056 7.235-.394 9.83.564 4.332 1.604 6.852 5.036 8.822 4.04 6.762-2.57 8.232.409 10.113 3.22 6.467 6.977 15.659 12.049 17.275 10.209 2.257-2.919-1.285-5.76 1.497-8.098 2.755-2.338 7.639 1.911 10.975 6.69 14.526 20.796 58.454 43.212 77.933 48.28 9.908 2.585 20.01 3.417 26.175 2.502.826-2.692-18.76-6.875-28.068-11.059-21.304-9.526-33.572-21.816-39.094-26.646-6.08-6.014-15.949-15.45-11.074-17.717 14.285.793 26.602 3.647 39.327 6.634 12.466 2.937 32.142 6.112 51.468 24.201 9.518 8.93 26.021 22.508 22.666 39.855-.948 5.45 6.339 1.852 9.49-.06 3.279-2.021 6.425 6.854 8.941 4.028.466-.542-.232-2.296-.319-3.238-3.429-20.704-21.994-51.435-42.457-69.021-21.22-18.196-46.143-17.74-84.883-46.596-22.242-16.578-29.529-42.396-46.771-47.974-10.468-3.378-10.235-9.323-17.48-15.802-4.792-4.317-14.226-11.148-26.044-12.585-11.787-1.419-38.478-.569-51.257-4.09-12.785-3.527-28.014-13.248-40.573-13.248-14.672 0-18.754 5.588-28.701 9.932a89.136 89.136 0 01-11.02 3.942c2.66 7.839 5.4 15.952 9.523 24.663 8.98 15.361 33.22 40.958 42.356 60.698z" fill="#F99D57"/><path d="M966.71 322.079c5.91-2.413 11.181 2.528 14.02 6.064 2.89 3.548 9.097 10.283 20.078 12.901 10.963 2.647 21.92.635 25.521-2.695 3.015-2.75 4.207 2.084 3.561 2.788-7.64 6.634-18.119 8.465-25.472 9.41-5.12.542-7.611.485-10.626.038-4.67-.688-9.184-2.224-11.902-.295-.772.587-.934.96-1.98 2.397-1.416.373-2.302.301-8.756-2.82-3.552-1.884-6.206-.9-8.614-.146-3.083 1.389-5.573 4.86-5.767 8.151.934 3.527-.713 6.423 5.072 12.358 3.021 3.099 4.919 6.315 7.984 10.305a240.442 240.442 0 006.991 8.674c1.69 2.024 2.448 4.809-.536 6.243-3.08 1.455-11.923 2.534-13.308 1.278-.802-.709-.202-1.261-.337-3.291-.093-1.229-.625-3.417-2.176-5.585-1.646-2.293-4.058-5.217-6.822-5.304-3.008-.125-4.332-.644-5.444-1.67-1.577-.456-3.557-1.255-4.562.671-.361 2.376-2.343 4.332-3.337 5.486-1.067 1.24-1.484 4.979-.253 8.229.65 1.976-1.497 4.353-4.907 4.666-4.02.276-8.838.921-10.43-.973-1.969-2.436 4.171-10.104 3.959-12.313.212-8.452 5.132-13.835 1.61-14.395-3.533-.558-5.582 0-10.003-1.268-4.425-1.265-6.375.969-4.162 4.898 2.146 3.915-1.497 9.58.62 13.215.435 2.176 5.256 6.091 4.159 8.497-1.381 3.16-9.365 2.165-11.259 2.165-1.554 0-4.078-.081-5.016-.817-1.746-1.365 1.112-5.093.818-7.161-.299-2.097-1.098-3.645-2.21-6.304-.964-2.242-1.834-3.506-3.963-6.303-2.427-3.221-8.667-4.663-14.631-.519-5.944 4.105-4.701 2.186-6.854 3.362-2.128 1.172-2.325 2.773-4.608 3.825-2.312 1.057-3.438.942-3.77 3.015-.337 2.078-.109 6.593-2.117 8.504-2.057 1.908-8.067 2.104-11.696-.844-3.575-2.967-8.334-5.347-6.229-8.435 1.139-1.635 4.771-4.404 8.42-7.63 3.256-2.862 7.117-6.11 7.737-6.736 1.312-1.368 5.208-5.148 6.012-7.957.802-2.821 1.094-4.994.648-8.676-.25-2.194-.381-4.646-.971-6.396-.585-1.625-1.805-3.098-4.323-4.097-2.49-1.005-5.126-2.239-12.514-.581-5.782 1.323-9.234 2.746-12.156 4.261-3.104 1.646-7.252 4.743-8.012 5.075-5.752-.591-2.072-3.865 1.843-6.795 4.001-2.979 12.248-6.309 19.252-7.916 4.534-1.035 7.48-1.199 10.703-2.349 2.398-.847 3.924-1.292 5.675-2.63 1.3-1.014 2.504-2.633 3.705-5.218 4.127-8.828 12.904-13 20.165-15.394 13.185-3.965 24.13 6.676 30.65 3.67 6.545-3.042 18.09-13.071 26.733-6.488 3.483 2.687 8.059 9.419 13.787 9.855m-126.189-53.126c-1.227-2.886-6.538-10.507-20.328-18.519-19.693-11.407-54.009-20.316-70.523-29.836-16.507-9.556-27.105-23.479-33.826-36.965-9.136-19.741-33.375-45.337-42.356-60.696-9.187-19.416-11.512-35.844-21.372-52.934-3.5-8.65-6.124-13.739-12.651-21.763-9.884-11.527-29.163-12.583-41.942-10.161-16.527 3.655-36.071 3.5-47.574-3.712-18.754-7.26-20.635-13.972-41.471-15-20.808-1.014-34.962 11.571-41.614 16.756-9.219 7.236-18.712 27.07-58.564 23.214-39.887-3.849-41.169-10.498-56.322-15.701-9.869-3.366-12.347-5.558-32.636-6.867-27.118-1.789-53.406 14.878-58.684 18.268-11.833 6.589-27.371 18.301-41.342 25.949-16.682 9.669-24.3 18.295-43.183 19.452-12.248 1.118-31.61.907-50.416-5.713-18.801-6.598-44.628-27.272-52.845-32.028C64.839 58.028 49.89 54.17 42.34 54.9c-9.073.862-15.018 2.099-21.217 4.544-7.266 2.859-14.95 7.797-10.68 7.296 3.721-.438 14.374-3.318 18.214-2.576.418 1.646-16.676 5.074-21.157 10.957.135 2.239 3.483-.394 9.3.307 5.853.683-9.729 7.141-8.441 9.135 1.279 1.971 8.707-2.984 14.07-4.121 4.187-.858 4.75-.858 3.462.868-1.485 1.986-6.768 4.276-10.388 8.012-5.367 5.524-7.666 12.058-5.701 11.339 3.304-1.169 3.482-2.647 8.074-6.568 4.732-4.01 9.434-7.749 14.297-10.409 4.773-2.579 11.479-6.5 20.57-6.056 14.753.709 25.528 2.374 38.534 10.462 15.093 9.386 47.067 24.825 78.722 29.488 27.121 4.004 28.969 12.245 27.458 31.56-2.06 26.36-9.398 31.422-9.905 58.353-.245 12.597 7.523 23.837 11.136 36.64 4.094 14.598 3.548 30.484-7.323 39.759-20.4 17.397-11.312 6.568-33.826 30.829-28.471 30.689-28.152 48.063-25.045 55.947 2.895 7.256 26.011 18.115 37.225 20.703 11.208 2.609 21.202-1.208 25.083-9.473 3.885-8.276-8.777-11.366-4.672-24.231 6.896-23.969 37.857-34.607 51.766-34.223 13.93.367 15.796-4.207 22.019-10.179 6.205-5.9 11.444-15.316 17.914-14.511 6.47.814 10.558 27.517 8.53 34.542-2.06 6.974-8.718 23.93-11.998 37.723-2.177 9.097 3.619 18.232 13.941 21.035 10.301 2.785 30.656 1.053 38.906-.262 5.135-.836 11.015-10.49 4.303-16.443-10.292-9.172-12.284-21.849-8.659-32.037 3.641-10.209 16.306-39.897 18.605-43.531 2.626-12.114-3.894-12.072 12.221-17.689 10.838-2.278 43.06-21.021 49.288-18.065.263 6.333 1.271 17.311 16.038 24.011 12.606 6.282 20.555 27.681 37.156 44.44 1.86 3.456-9.38 14.926-18.143 21.816-5.352 4.004-8.631 12.847.218 17.134 10.623 6.523 17.633 15.287 29.142 17.293 8.256 1.221 13.119-.479 16.995-7.736 3.256-6.08-3.679-13.513.444-22.562 4.109-9.073 6.464-10.987 11.685-25.829 5.197-14.852-12.797-33.755-11.685-40.591.603-3.73 2.812-4.997 5.865-2.83 4.159 2.997 25.913 36.7 38.525 54.801 4.121 7.266 2.943 17.799 7.311 24.16-10.137 7.216-7.981 20.979 1.202 24.64 9.168 3.652 27.815 1.628 37.171 1.628 9.359 0 15.044-3.76 15.605-12.57.563-8.783-6.381-13.086-14.625-18.342-7.845-17.702-1.902-27.306-5.206-38.645-2.478-8.429-8.259-19.648-10.659-26.485-3.974-12.982-8.915-48.495-11.062-54.226-3.769-13.879-8.137-11.887-5.128-28.197 2.361-8.837 16.78.945 18.465-11.21 1.646-12.111 1.121-13.31 3.506-20.129 2.4-6.81 1.753-15.167 6.064-11.908 11.273 8 17.547-.582 22.809 3.736 5.767 4.789 6.091 5.409 8.527 8.193 10.241 11.777 10.277 6.023 9.267 1.151-.325-1.551-.712-3.614-.757-5.003-.161-4.419 3.095-6.491 9.091.474 7.379 8.548 10.387 12.218 23.143 27.71 15.447 18.79 30.457 36.45 44.309 47.07 15.11 11.649 36.813 19.998 46.518 17.479 4.693-1.226-13.417-7.541-18.998-10.752-9.732-5.614-22.866-15.382-30.856-28.14-7.609-12.123-8.113-12.77-13.304-22.063-4.105-7.359.119-7.171 5.024-2.094 7.839 9.839 20.719 16.703 40.427 26.226 19.688 9.535 47.405 14.183 62.829 18.224 14.618 3.769 33.196 12.042 42.642 21.029 3.819 3.655 1.217-4.958 1.098-6.225-.316-3.057 3.95-.931 7.248 1.762 3.28 2.694 6.88.377 5.654-2.512" fill="#EA7200"/></svg>