<svg id="Layer_1" data-name="Layer 1" xmlns="http://www.w3.org/2000/svg" viewBox="0 0 1355 646.89"><defs><style>.cls-1{fill:#fff;}.cls-2{fill:#a6a8ab;}.cls-3{fill:#d0d2d3;}</style></defs><title>AWF_Logo_Standard_White_Print_Vector</title><path class="cls-1" d="M55.47,473.25,43.62,510H66.89L55.47,473.25ZM8.24,547.92,46.29,449H64.8l37.9,98.92H78.46l-7.67-22.16H40l-7.52,22.16Z" transform="translate(-7.5 -16.56)"/><polygon class="cls-1" points="111.22 531.36 111.22 432.45 178.35 432.45 178.35 452.52 134.06 452.52 134.06 473.83 170.55 473.83 170.55 492.35 134.06 492.35 134.06 531.36 111.22 531.36 111.22 531.36"/><path class="cls-1" d="M227.23,496.1h20.91c2.67,0,5-1.29,7-3.84a15.78,15.78,0,0,0,2.92-9.82q0-6.15-3.36-9.74c-2.22-2.43-4.63-3.63-7.22-3.63H227.23v27Zm-22.84,51.82V449H249a28.66,28.66,0,0,1,12.88,2.93,34.42,34.42,0,0,1,10.26,7.66,36.19,36.19,0,0,1,6.75,10.73,32,32,0,0,1,2.42,12.12,34.38,34.38,0,0,1-1.11,8.84,33.6,33.6,0,0,1-3.2,8,30.7,30.7,0,0,1-5.08,6.76,30.07,30.07,0,0,1-6.77,5.08l22.72,36.78H262.05L242.14,516H227.23v31.91Z" transform="translate(-7.5 -16.56)"/><polygon class="cls-1" points="298.59 432.45 321.44 432.45 321.44 531.36 298.59 531.36 298.59 432.45 298.59 432.45"/><path class="cls-1" d="M343.55,497.61a52,52,0,0,1,3.21-17.75A49.48,49.48,0,0,1,356.09,464a47.27,47.27,0,0,1,15-11.27,45.37,45.37,0,0,1,20.13-4.31q13.24,0,23,6A37.57,37.57,0,0,1,428.67,470l-17.55,12.25a20.73,20.73,0,0,0-3.89-6.46,21.6,21.6,0,0,0-5.15-4.18,20.36,20.36,0,0,0-5.79-2.24,28.22,28.22,0,0,0-5.65-.61,20.36,20.36,0,0,0-10.58,2.63,23.42,23.42,0,0,0-7.37,6.84,30.06,30.06,0,0,0-4.4,9.47,39.87,39.87,0,0,0-1.46,10.72,36.43,36.43,0,0,0,1.73,11.28,32.28,32.28,0,0,0,4.88,9.62A23.37,23.37,0,0,0,381,526a20.15,20.15,0,0,0,9.89,2.46,23.57,23.57,0,0,0,5.79-.78,22.84,22.84,0,0,0,5.78-2.36,19.59,19.59,0,0,0,5-4.18,20.46,20.46,0,0,0,3.61-6.34l18.81,11a30.27,30.27,0,0,1-6.46,9.76,41.51,41.51,0,0,1-9.7,7.25,50.34,50.34,0,0,1-11.49,4.46,49.59,49.59,0,0,1-11.92,1.53,40.7,40.7,0,0,1-18.88-4.4,47.89,47.89,0,0,1-14.75-11.62,54.91,54.91,0,0,1-9.68-16.44,52.18,52.18,0,0,1-3.5-18.69" transform="translate(-7.5 -16.56)"/><path class="cls-1" d="M484.54,473.25,472.71,510H496l-11.44-36.78Zm-47.22,74.67,38-98.92h18.53l37.89,98.92H507.54l-7.67-22.16H469.08l-7.52,22.16Z" transform="translate(-7.5 -16.56)"/><polygon class="cls-1" points="560.34 474.8 560.34 531.36 537.5 531.36 537.5 432.45 555.34 432.45 601.44 490.54 601.44 432.45 624.3 432.45 624.3 531.36 605.9 531.36 560.34 474.8 560.34 474.8"/><polygon class="cls-1" points="714.99 432.61 736.15 432.61 746.05 464.21 756.23 432.61 777.25 432.61 760.67 478.56 770.7 505.18 795.64 432.45 820.43 432.45 781 531.36 761.79 531.36 746.18 492.63 730.44 531.36 711.36 531.36 671.94 432.45 696.59 432.45 721.66 505.18 731.42 478.56 714.99 432.61 714.99 432.61"/><polygon class="cls-1" points="833.39 432.45 856.24 432.45 856.24 531.36 833.39 531.36 833.39 432.45 833.39 432.45"/><polygon class="cls-1" points="882.14 531.36 882.14 432.45 904.99 432.45 904.99 511.3 952.92 511.3 952.92 531.36 882.14 531.36 882.14 531.36"/><path class="cls-1" d="M1036.06,498.32a38.47,38.47,0,0,0-1.74-11.92,26.6,26.6,0,0,0-5.09-9.25,21.81,21.81,0,0,0-8.21-6,27.47,27.47,0,0,0-11-2.09H996v58.77H1010a26.56,26.56,0,0,0,11.14-2.21,22.53,22.53,0,0,0,8.15-6.22,28.31,28.31,0,0,0,5-9.32,38,38,0,0,0,1.74-11.78m-63,49.6V449H1010a55.05,55.05,0,0,1,21.46,3.9,43.28,43.28,0,0,1,24.72,26.27,58,58,0,0,1,3.13,19.15,57,57,0,0,1-3.48,20.42,43.81,43.81,0,0,1-10,15.59,44.61,44.61,0,0,1-15.59,10,55.32,55.32,0,0,1-20.28,3.56Z" transform="translate(-7.5 -16.56)"/><polygon class="cls-1" points="1066.88 531.36 1066.88 432.45 1089.72 432.45 1089.72 511.3 1137.65 511.3 1137.65 531.36 1066.88 531.36 1066.88 531.36"/><polygon class="cls-1" points="1155.9 432.45 1178.74 432.45 1178.74 531.36 1155.9 531.36 1155.9 432.45 1155.9 432.45"/><polygon class="cls-1" points="1201.86 531.36 1201.86 432.45 1269.01 432.45 1269.01 452.52 1224.7 452.52 1224.7 473.83 1261.21 473.83 1261.21 492.35 1224.7 492.35 1224.7 531.36 1201.86 531.36 1201.86 531.36"/><polygon class="cls-1" points="1354.25 511.3 1354.25 531.36 1284.75 531.36 1284.75 432.45 1353.01 432.45 1353.01 452.52 1307.6 452.52 1307.6 471.74 1346.6 471.74 1346.6 490.28 1307.6 490.28 1307.6 511.3 1354.25 511.3 1354.25 511.3"/><polygon class="cls-1" points="285.65 646.3 285.65 564.66 338.77 564.66 338.77 569.96 291.51 569.96 291.51 602.4 331.66 602.4 331.66 607.44 291.51 607.44 291.51 646.3 285.65 646.3 285.65 646.3"/><path class="cls-1" d="M365.14,622a39,39,0,0,0,2.36,13.51,35.93,35.93,0,0,0,6.67,11.5,32.44,32.44,0,0,0,10.23,8,30,30,0,0,0,26.33-.1,33.11,33.11,0,0,0,10.19-8.25,37.7,37.7,0,0,0,6.55-11.55A38.67,38.67,0,0,0,429.76,622a39.1,39.1,0,0,0-2.39-13.5A37.55,37.55,0,0,0,420.62,597a32.93,32.93,0,0,0-10.23-8,28.26,28.26,0,0,0-12.94-3,28.68,28.68,0,0,0-13.35,3.11,32.06,32.06,0,0,0-10.16,8.23,39.43,39.43,0,0,0-8.8,24.66m32.31,41.4a34,34,0,0,1-15.53-3.55,40.44,40.44,0,0,1-12.07-9.32A41.58,41.58,0,0,1,362,637.33,43.77,43.77,0,0,1,359.27,622a42.22,42.22,0,0,1,2.94-15.64,44.09,44.09,0,0,1,8-13.23,38.31,38.31,0,0,1,12.14-9.12,34.15,34.15,0,0,1,15.18-3.4,33.33,33.33,0,0,1,15.53,3.62,39.56,39.56,0,0,1,12,9.49A43.92,43.92,0,0,1,432.87,607a43.05,43.05,0,0,1-.17,30.78A43.48,43.48,0,0,1,424.65,651a39.13,39.13,0,0,1-12.08,9.08,34,34,0,0,1-15.12,3.39" transform="translate(-7.5 -16.56)"/><path class="cls-1" d="M490.37,658c5.52,0,10.1-1,13.74-3.09a24.32,24.32,0,0,0,8.68-8.19,34,34,0,0,0,4.54-11.49,63.84,63.84,0,0,0,1.32-13V581.22h5.87v41.06a66.83,66.83,0,0,1-1.78,15.62,37.67,37.67,0,0,1-5.81,13.18,28.74,28.74,0,0,1-10.53,9c-4.31,2.23-9.63,3.32-15.92,3.32s-11.85-1.16-16.21-3.5a29.1,29.1,0,0,1-10.52-9.3,38.1,38.1,0,0,1-5.65-13.17,69.23,69.23,0,0,1-1.65-15.18V581.22h5.86v41.06a65.58,65.58,0,0,0,1.32,13.22,33.44,33.44,0,0,0,4.53,11.44,24.41,24.41,0,0,0,8.64,8q5.4,3,13.57,3" transform="translate(-7.5 -16.56)"/><polygon class="cls-1" points="548.87 575.7 548.87 646.3 543.02 646.3 543.02 564.66 547.5 564.66 604.76 636.54 604.76 564.78 610.63 564.78 610.63 646.3 605.23 646.3 548.87 575.7 548.87 575.7"/><path class="cls-1" d="M705.52,621.94a44.48,44.48,0,0,0-2.17-14.21A32.46,32.46,0,0,0,697,596.51a29.51,29.51,0,0,0-10.3-7.36,35,35,0,0,0-14-2.64H651.38v71.07h21.25a35,35,0,0,0,14.2-2.71,28.09,28.09,0,0,0,10.31-7.54A33,33,0,0,0,703.39,636a44.39,44.39,0,0,0,2.13-14.08m-60,40.92V581.22h27.13a41.67,41.67,0,0,1,17,3.22,34.32,34.32,0,0,1,12.12,8.73,36.49,36.49,0,0,1,7.25,13,50.78,50.78,0,0,1,2.43,15.82,49.8,49.8,0,0,1-2.71,16.83A37.13,37.13,0,0,1,701,651.66a35,35,0,0,1-12.27,8.27,42.06,42.06,0,0,1-16,2.93Z" transform="translate(-7.5 -16.56)"/><path class="cls-1" d="M759.34,588.35l-18.17,42.78h36l-17.82-42.78Zm-37.15,74.51,34.75-81.64h4.83l34.72,81.64h-6.32L778.78,636h-39l-11.4,26.9Z" transform="translate(-7.5 -16.56)"/><polygon class="cls-1" points="856.39 569.96 826.48 569.96 826.48 646.3 820.61 646.3 820.61 569.96 790.72 569.96 790.72 564.66 856.39 564.66 856.39 569.96 856.39 569.96"/><polygon class="cls-1" points="875.34 564.78 881.23 564.78 881.23 646.3 875.34 646.3 875.34 564.78 875.34 564.78"/><path class="cls-1" d="M916.66,622A39.24,39.24,0,0,0,919,635.55a36.09,36.09,0,0,0,6.66,11.5,32.67,32.67,0,0,0,10.26,8,30,30,0,0,0,26.32-.1,33.19,33.19,0,0,0,10.18-8.25A37.72,37.72,0,0,0,979,635.15a38.77,38.77,0,0,0-.13-26.61A37.86,37.86,0,0,0,972.16,597a33.24,33.24,0,0,0-10.25-8A28.21,28.21,0,0,0,949,586a28.68,28.68,0,0,0-13.33,3.11,32.32,32.32,0,0,0-10.17,8.23,39.28,39.28,0,0,0-8.8,24.66m32.3,41.4a34,34,0,0,1-15.51-3.55,40.31,40.31,0,0,1-12.07-9.32,41.6,41.6,0,0,1-7.82-13.24A43.55,43.55,0,0,1,910.79,622a42.63,42.63,0,0,1,2.94-15.64,44.12,44.12,0,0,1,8-13.23,38.09,38.09,0,0,1,12.14-9.12,34.12,34.12,0,0,1,15.18-3.4,33.33,33.33,0,0,1,15.53,3.62,39.35,39.35,0,0,1,12,9.49A43.92,43.92,0,0,1,984.38,607a43,43,0,0,1-.16,30.78,43.45,43.45,0,0,1-8,13.16,39.24,39.24,0,0,1-12.08,9.08A34.12,34.12,0,0,1,949,663.44" transform="translate(-7.5 -16.56)"/><polygon class="cls-1" points="1007.59 575.7 1007.59 646.3 1001.74 646.3 1001.74 564.66 1006.22 564.66 1063.49 636.54 1063.49 564.78 1069.35 564.78 1069.35 646.3 1063.93 646.3 1007.59 575.7 1007.59 575.7"/><path class="cls-2" d="M594.5,381.83a16.81,16.81,0,0,1-.87,4.27c3.92,2.18,8.76,3.45,16.46,3.69,14.77.45,15.73-4.9,15.87-17.87a45.94,45.94,0,0,1,8.73-25.81c7.7-8.43,12.07-15.61,22-20.33.53-.22,1.1-.41,1.67-.59l-.07-.08c-5.15-5.65-10.13-13.58-16.47-18.29-6.59-3.61-8.22-7.12-9.94-17.8-.57-.7-1.58-.84-2.85-.66-9.76,8.87-24.62,21.15-33.37,31.48-11.73,13.93-13,15.5-19.36,24.82-.24.35-.46.69-.69,1a47.33,47.33,0,0,0,4.25,17.79c8.25,5.25,15.19,9.56,14.63,18.34Z" transform="translate(-7.5 -16.56)"/><path class="cls-2" d="M865.52,373.72c1.31-1.37,5.2-5.15,6-8a19.53,19.53,0,0,0,.65-8.67,35.48,35.48,0,0,0-1-6.4,6.89,6.89,0,0,0-4.33-4.1,19,19,0,0,0-3.25-1.08c-.37,6.46.91,13.18-.09,21.09-.59,4.91-6.75,8.59-10.15,17-.1.26-.2.53-.29.81,1.4-1.2,3-2.55,4.68-4,3.25-2.87,7.12-6.12,7.74-6.74Z" transform="translate(-7.5 -16.56)"/><path class="cls-2" d="M903.23,385.48a26.67,26.67,0,0,0-4-6.3c-2.42-3.22-8.66-4.67-14.63-.52s-4.7,2.18-6.85,3.36-2.33,2.77-4.61,3.82-3.44,1-3.77,3c-.26,1.63-.2,4.74-1.12,6.93A154.24,154.24,0,0,0,891,397.71a64.08,64.08,0,0,0,13.18-1c.37-1.62,1.45-3.6,1.27-4.92-.3-2.09-1.1-3.64-2.21-6.3Z" transform="translate(-7.5 -16.56)"/><path class="cls-2" d="M1362.48,47.45c.55-3.27-10.66-11.33-27.94-8.53-27.08,4.36-46.18,32.86-73,47.07s-49,14.24-61.56,14.07c-19.71-.3-38.68-5.12-51.25-11.13-15.68-7.51-38-25.34-57.68-52.44-8.63-7.34-13.08-13.9-30.32-15.16s-18.09-2.77-35.75,4.23c-26.44,10.46-51.69-6.34-82.13-8.87-17.42-1.43-45.15,8.72-57.73,16.93s-36.7,19.47-53.69,20-30.87-2.56-44-4.21S744,46,720.25,53.11c-20.39,5.42-42.44,26.11-56.92,43.28l.63,1.86a89.31,89.31,0,0,0,11-3.92c9.95-4.34,14-9.93,28.71-9.93,12.55,0,27.78,9.72,40.57,13.25s39.47,2.67,51.25,4.09,21.26,8.27,26,12.58c7.24,6.48,7,12.43,17.48,15.8,17.24,5.58,24.53,31.4,46.77,48,38.74,28.85,63.66,28.4,84.88,46.59,20.47,17.59,39,48.32,42.46,69,.09,1,.79,2.7.32,3.24-2.52,2.83-5.66-6.05-8.94-4s-10.44,5.51-9.49.06c3.35-17.34-13.15-30.92-22.67-39.85-19.32-18.09-39-21.26-51.47-24.2-12.72-3-25-5.84-39.32-6.64-4.88,2.27,5,11.71,11.07,17.72,5.52,4.83,17.79,17.12,39.1,26.65,9.3,4.18,28.89,8.36,28.06,11.06-6.16.91-16.26.08-26.17-2.51-19.48-5.06-63.41-27.48-77.93-48.28-3.34-4.78-8.22-9-11-6.69s.76,5.18-1.5,8.1c-1.61,1.84-10.8-3.23-17.27-10.21-1.88-2.81-3.35-5.79-10.11-3.22-2,1-4.49-2.43-8.83-4-2.59-1-4.65.49-9.83-.56-16.46-3.39-11,15.95-9.83,24.57,0,.4.09.86.11,1.31,11.9,4.43,23.81,9.08,32.72,14.24,13.79,8,19.1,15.64,20.33,18.52s-2.37,5.21-5.65,2.51-7.57-4.81-7.25-1.76c.12,1.27,2.72,9.88-1.1,6.23-9.44-9-28-17.26-42.64-21l-2.1-.54c-3.21,3.41-7.91,4.86-14.46,1.75-15-7.1-2.88,6.67-7.75,14-8.55,12.59-.84,33.61,2.24,40.4.65,2.88,10.62,17.71,14.7,28.11s.37,21.63,4.68,31.25,12.58,12.89,10.61,21c-.12.5-.24.93-.36,1.34,11.17-.62,20.5-2.93,20.67-8.54.21-6.14-1.8-8.72-7.22-13.59s-7.48-9.35-9.51-19-2.47-18.65.32-27.31,7.93-21.75,8-26.47,1.14-10.05,5.88-13.92c3.21-2.45,6.7-3.88,19.53-3.61s26.39-16,53.84-16.58c8,0,1,10.89-2.26,23.58s-3.81,23.78-8.08,37.95c-2.36,6.68-5.52,9.86-7.4,13.84.25-.08.5-.13.75-.22,2.4-.85,3.92-1.29,5.67-2.63a13.79,13.79,0,0,0,3.71-5.22c4.12-8.83,12.9-13,20.16-15.4,13.19-4,24.13,6.68,30.65,3.68,2.27-1.05,5.14-2.94,8.27-4.69.08-.22.17-.44.23-.62,4.85-11.69,11.94-14.9,13-20.29-.26-5.83,3.28-8.55,5.44-9.2,19.78-.39,20.41,17.69,40.51,25.1,6,2.06,22.13,11.34,25.5,15.75,2.93,3.77,13.62,14.1,14.13,22.31.81,13.37-1.4,18.67,15,18.84,14.22.17,22.36-3.26,26.1-5s7.44-3.43,15.14-10.69c4.39-4.16,7.58-11.5,5.33-15.4-3.6-6.26-9.07-5.92-17.24-13s-12.92-31.4-23.28-36.12c-14.8-6.76-22.85-16.86-34.39-29.11s-11.15-16.73-13.34-23.29-3.68-23.76.61-29.52c5.63-7.43,22.39-5.22,31.69-2.47s18.79-3.51,16-17.54c-4.19-21-1.37-21.36,10.92-14.8,9.62,5.14,38.65-1.82,42.86,4.05,3.4,4.73,8.8,10,15.52,9.76,4.77-.14-4.93-10.25.52-13,4.37-2.19,10,.89,16.21,5.76,6.74,5.3,17.24,15.23,32.44,26.71s42.79,29.48,65.83,34.14c23.84,4.83,33,2.91,43.43-.76s18.89-12.78,17.12-13.62-7.42,2.73-15.75,3.71c-8.85,1-16.44,3.57-36.33-2-25.69-7.14-39.18-19.15-70.26-48.82-11.73-11.21-4.58-13.25-4.91-17.56-.2-3.43-2.39-5.83-2-7.13,1.87-5,14.47-6.51,35-8.71,26.09-2.78,38.22-7.91,60.54-23.19,20.52-14.06,33.63-31.15,53.06-46.71,11.78-12.31,22.69-10.35,33.31-6.32,8.17,3.13,10.73-3.58,6-6.68-8.4-5.46,3.48-7.63,4.12-11.2Z" transform="translate(-7.5 -16.56)"/><path class="cls-3" d="M494.68,289.17c-3.05-2.17-5.26-.9-5.86,2.83-.8,4.9,8.19,16,11.44,27.36,1.78-1.4,2.93-2.54,4.85-4.13,3.06-2.53,5.66-2.57,7.67-1.37-8.37-12.34-15.83-23.06-18.1-24.69Z" transform="translate(-7.5 -16.56)"/><path class="cls-3" d="M442,354.29c2.31-1.82,4.8-4,7.17-6.19.26-.26.52-.5.79-.75,6.26-6,11.5-12.43,10.18-14.87-8.82-8.91-15.19-19.11-21.13-27.67-1.69,1.91-3.64,3.9-5.95,6.43-7.05,7.69-14.71,15.57-14.71,15.57s-11,10.56-14.06,13.77a88.34,88.34,0,0,0-10.19,13.59c-3.28,5.4-5.26,12.48-.07,18,3.65,3.89,21.56,16.83,35.2,17.12,7.09,0,14.22-1.57,13.2-8.62a42.68,42.68,0,0,1-1.06-9.68c-7.74-4.43-4.54-12.79.63-16.66Z" transform="translate(-7.5 -16.56)"/><path class="cls-3" d="M541.72,392.77c-9.18-3.66-11.34-17.42-1.2-24.64-4.37-6.36-3.19-16.89-7.31-24.16-4.67-6.7-10.6-15.54-16.41-24.17a12.69,12.69,0,0,1,.47,2.91c.17,6.26,1.17,18.5,1.42,27.12.36,13-4.06,22.57-4.49,31.64s0,10.94,9.25,14.08c7.1,2.45,35.69,2.78,43.88-.77-9,.34-19.45.44-25.61-2Z" transform="translate(-7.5 -16.56)"/><path class="cls-3" d="M680.63,210.45c-4.91-5.08-9.13-5.27-5,2.09,5.19,9.3,5.7,9.94,13.31,22.07,8,12.75,21.12,22.52,30.85,28.14,5.58,3.21,23.69,9.52,19,10.75-9.71,2.52-31.41-5.83-46.52-17.48-13.85-10.62-28.86-28.28-44.31-47.07-12.75-15.49-15.76-19.16-23.14-27.71-6-7-9.25-4.89-9.09-.48a32.6,32.6,0,0,0,.76,5c1,4.87,1,10.62-9.27-1.15-2.44-2.79-2.76-3.41-8.53-8.2-5.26-4.31-11.53,4.27-22.81-3.73-4.31-3.26-3.66,5.1-6.06,11.91s-1.86,8-3.51,20.12-16.1,2.38-18.46,11.21c-3,16.31,1.36,14.32,5.13,28.2,2.14,5.73,7.08,41.25,11.06,54.23.84,2.41,2.12,5.39,3.52,8.59,1.49-4.79,2.19-9.09,11-10.41,9.9.76,18.6-2.21,33.13-2.91,6.88-.23,17.71-7.69,20.23-4.61,1.72,10.68,3.35,14.19,9.94,17.8,6.34,4.71,11.32,12.64,16.47,18.29,4.44,4.91,9.31,7.07,11.88,16.55,4.46,10.78-6.71,12-13.36,13.48s-4.54,19,2.26,28.23c3.73,6.65,10.18,15.42,23.4,14.24,8.09-.79,10.08-7.19,12-16.7,9.17-9.37,13.38-9.73,14.35-18.85,1.48-9.54-3.13-28.63-5.37-38s6.51-5,6.51-5a33.36,33.36,0,0,1,9,6.35s13,14.32,20,26.95c6.56,11.86,14.73,20.92,9,27.15-4.17,4.54-4.05,15.07,0,16.37,7.32,1.73,35,2,39.29.5,3.22-1.1,3.71-2.16,4.56-5.55,2-8.1-6.31-11.41-10.61-21s-.62-20.85-4.68-31.25-14-25.23-14.7-28.11c-3.08-6.79-10.79-27.81-2.24-40.4,4.87-7.32-7.2-21.09,7.75-14,6.55,3.11,11.25,1.66,14.46-1.75-15.73-3.91-41.89-8.56-60.73-17.69-19.71-9.52-32.59-16.38-40.42-26.22Z" transform="translate(-7.5 -16.56)"/><path class="cls-3" d="M715.84,183.63c6.72,13.49,17.32,27.41,33.83,37,9,5.21,23.41,10.24,37.8,15.59,0-.45-.06-.91-.11-1.31-1.12-8.62-6.63-28,9.83-24.57,5.18,1.05,7.24-.4,9.83.56,4.34,1.61,6.86,5,8.83,4,6.76-2.57,8.23.41,10.11,3.22,6.47,7,15.66,12.05,17.27,10.21,2.26-2.92-1.28-5.76,1.5-8.1s7.64,1.91,11,6.69c14.52,20.8,58.45,43.22,77.93,48.28,9.91,2.59,20,3.42,26.17,2.51.83-2.7-18.76-6.88-28.06-11.06-21.31-9.53-33.58-21.82-39.1-26.65-6.08-6-15.95-15.45-11.07-17.72,14.28.8,26.6,3.65,39.32,6.64,12.47,2.94,32.15,6.11,51.47,24.2,9.52,8.93,26,22.51,22.67,39.85-.95,5.45,6.34,1.86,9.49-.06s6.42,6.86,8.94,4c.47-.54-.23-2.29-.32-3.24-3.43-20.7-22-51.43-42.46-69C949.47,206.5,924.55,207,885.81,178.1c-22.24-16.58-29.53-42.4-46.77-48-10.47-3.37-10.24-9.32-17.48-15.8-4.79-4.31-14.23-11.15-26-12.58s-38.47-.57-51.25-4.09-28-13.25-40.57-13.25C689,84.4,684.93,90,675,94.33a87.68,87.68,0,0,1-11,3.94,221,221,0,0,0,9.53,24.67c9,15.35,33.22,40.95,42.35,60.69Z" transform="translate(-7.5 -16.56)"/><path class="cls-1" d="M966.71,322.08c5.91-2.41,11.18,2.53,14,6.06a36.38,36.38,0,0,0,20.08,12.9c11,2.65,21.92.64,25.52-2.69,3-2.75,4.21,2.08,3.56,2.79-7.64,6.63-18.12,8.46-25.47,9.41a38.08,38.08,0,0,1-10.63,0c-4.67-.69-9.18-2.23-11.9-.3a9.6,9.6,0,0,0-2,2.4c-1.42.37-2.3.3-8.76-2.82-3.55-1.89-6.2-.9-8.61-.15a10.28,10.28,0,0,0-5.77,8.15c.94,3.53-.71,6.42,5.07,12.36,3,3.1,4.92,6.32,8,10.31s5.27,6.63,7,8.67,2.45,4.81-.54,6.24S964.36,398,963,396.73c-.81-.71-.21-1.26-.34-3.29a11.62,11.62,0,0,0-2.18-5.59c-1.64-2.29-4.05-5.21-6.82-5.3-3-.12-4.33-.64-5.44-1.67-1.58-.46-3.56-1.25-4.56.67-.37,2.38-2.35,4.33-3.34,5.49s-1.49,5-.25,8.23c.65,2-1.5,4.35-4.91,4.66-4,.28-8.84.92-10.43-1-2-2.43,4.17-10.1,4-12.31.21-8.45,5.13-13.84,1.61-14.4s-5.58,0-10-1.26-6.38,1-4.17,4.89-1.49,9.58.62,13.22c.44,2.17,5.26,6.09,4.16,8.5-1.38,3.16-9.36,2.16-11.26,2.16-1.55,0-4.07-.08-5-.82-1.75-1.36,1.11-5.09.82-7.16s-1.1-3.64-2.21-6.3a26.67,26.67,0,0,0-4-6.3c-2.42-3.22-8.66-4.67-14.63-.52s-4.7,2.18-6.85,3.36-2.33,2.77-4.61,3.82-3.44,1-3.77,3-.11,6.59-2.12,8.5-8.06,2.11-11.69-.84-8.34-5.35-6.23-8.43c1.14-1.64,4.77-4.41,8.42-7.63,3.25-2.87,7.12-6.12,7.74-6.74,1.31-1.37,5.2-5.15,6-8a19.53,19.53,0,0,0,.65-8.67,35.48,35.48,0,0,0-1-6.4,6.89,6.89,0,0,0-4.33-4.1c-2.49-1-5.12-2.24-12.51-.58a48.66,48.66,0,0,0-12.16,4.26c-3.1,1.65-7.25,4.75-8,5.08-5.75-.59-2.07-3.87,1.84-6.8s12.25-6.31,19.25-7.91c4.54-1,7.49-1.2,10.71-2.35,2.4-.85,3.92-1.29,5.67-2.63a13.79,13.79,0,0,0,3.71-5.22c4.12-8.83,12.9-13,20.16-15.4,13.19-4,24.13,6.68,30.65,3.68s18.09-13.08,26.74-6.49c3.48,2.68,8.05,9.41,13.78,9.85" transform="translate(-7.5 -16.56)"/><path class="cls-1" d="M840.52,269c-1.23-2.88-6.54-10.5-20.33-18.52-19.69-11.4-54-20.31-70.52-29.83s-27.11-23.48-33.83-37c-9.13-19.74-33.37-45.34-42.35-60.69C664.3,103.52,662,87.09,652.12,70c-3.5-8.65-6.13-13.74-12.66-21.76-9.88-11.53-29.16-12.58-41.94-10.16C581,41.73,561.45,41.58,550,34.37c-18.75-7.26-20.64-14-41.47-15s-35,11.57-41.62,16.75c-9.21,7.24-18.71,27.07-58.56,23.22S367.13,48.84,352,43.64c-9.87-3.37-12.35-5.56-32.64-6.87C292.23,35,265.94,51.65,260.66,55c-11.83,6.59-27.37,18.3-41.34,25.95-16.68,9.66-24.3,18.29-43.19,19.45-12.24,1.12-31.61.9-50.41-5.72s-44.63-27.27-52.85-32c-8-4.67-23-8.53-30.53-7.8-9.07.86-15,2.1-21.21,4.54-7.27,2.86-14.95,7.8-10.68,7.3,3.72-.44,14.37-3.32,18.21-2.58.42,1.65-16.68,5.08-21.16,11,.13,2.24,3.48-.39,9.3.31s-9.73,7.14-8.44,9.13,8.71-3,14.07-4.12c4.19-.86,4.75-.86,3.46.87-1.48,2-6.77,4.28-10.39,8-5.36,5.53-7.66,12.06-5.7,11.34,3.31-1.17,3.48-2.65,8.08-6.57A89.37,89.37,0,0,1,32.17,83.68c4.78-2.57,11.48-6.5,20.57-6.05C67.5,78.34,78.27,80,91.28,88.09c15.09,9.39,47.06,24.83,78.72,29.49,27.12,4,29,12.24,27.46,31.56-2.06,26.36-9.4,31.42-9.91,58.35-.24,12.6,7.52,23.84,11.14,36.64,4.09,14.6,3.55,30.49-7.33,39.76-20.4,17.4-11.31,6.57-33.82,30.83-28.47,30.69-28.15,48.06-25,55.95,2.9,7.25,26,18.11,37.23,20.7s21.2-1.21,25.08-9.47-8.78-11.37-4.67-24.23c6.9-24,37.86-34.61,51.77-34.23s15.79-4.2,22-10.18,11.45-15.31,17.92-14.51,10.56,27.52,8.53,34.54-8.72,23.94-12,37.73c-2.18,9.09,3.62,18.23,13.94,21s30.66,1.06,38.91-.26c5.13-.83,11-10.49,4.3-16.44-10.29-9.17-12.28-21.85-8.66-32s16.31-39.9,18.61-43.53c2.63-12.11-3.9-12.07,12.22-17.69,10.84-2.28,43.06-21,49.29-18.07.26,6.34,1.27,17.32,16,24,12.6,6.28,20.55,27.68,37.15,44.44,1.86,3.45-9.38,14.92-18.14,21.81-5.35,4-8.63,12.85.22,17.14,10.62,6.52,17.63,15.28,29.14,17.29,8.26,1.22,13.12-.48,17-7.74,3.26-6.08-3.68-13.51.45-22.56s6.46-11,11.68-25.83S487.71,298.84,488.82,292c.6-3.73,2.81-5,5.86-2.83,4.16,3,25.92,36.7,38.53,54.8,4.12,7.27,2.94,17.8,7.31,24.16-10.14,7.22-8,21,1.2,24.64s27.82,1.63,37.17,1.63,15.05-3.76,15.61-12.57-6.38-13.09-14.63-18.34c-7.84-17.71-1.9-27.31-5.2-38.65-2.48-8.43-8.26-19.65-10.66-26.48-4-13-8.92-48.5-11.06-54.23-3.77-13.88-8.14-11.89-5.13-28.2,2.36-8.83,16.78.95,18.46-11.21s1.12-13.31,3.51-20.12,1.75-15.17,6.06-11.91c11.28,8,17.55-.58,22.81,3.73,5.77,4.79,6.09,5.41,8.53,8.2,10.24,11.77,10.28,6,9.27,1.15a32.6,32.6,0,0,1-.76-5c-.16-4.41,3.09-6.49,9.09.48,7.38,8.55,10.39,12.22,23.14,27.71,15.45,18.79,30.46,36.45,44.31,47.07,15.11,11.65,36.81,20,46.52,17.48,4.69-1.23-13.42-7.54-19-10.75-9.73-5.62-22.86-15.39-30.85-28.14-7.61-12.13-8.12-12.77-13.31-22.07-4.1-7.36.12-7.17,5-2.09,7.83,9.84,20.71,16.7,40.42,26.22s47.41,14.19,62.83,18.23c14.62,3.77,33.2,12,42.64,21,3.82,3.65,1.22-5,1.1-6.23-.32-3.05,4-.93,7.25,1.76s6.88.38,5.65-2.51" transform="translate(-7.5 -16.56)"/></svg>